<svg width="1292" height="400" viewBox="0 0 1292 400" fill="none" xmlns="http://www.w3.org/2000/svg">
<path d="M227.365 100.292C210.115 90.4124 190.424 85.4732 168.24 85.4732C149.565 85.4732 134.274 87.7349 122.14 92.3174C110.007 96.899 100.365 102.732 92.9902 109.872C85.6735 117.013 79.9652 124.333 76.0402 131.891H66.5235V0.0765381H5.25684V383.321H66.5235V235.26C66.5235 203.541 74.1319 179.38 89.4236 162.717C104.707 146.114 124.999 137.782 150.332 137.782C172.524 137.782 189.949 143.793 202.624 155.933C215.29 168.014 221.657 186.759 221.657 212.17V383.44H282.924V207.409C282.924 181.998 277.99 160.337 268.057 142.246C258.182 124.214 244.557 110.23 227.365 100.351V100.292Z" fill="#FF6446"/>
<path d="M566.426 100.586C545.251 88.0891 520.568 81.8408 492.368 81.8408C464.176 81.8408 437.943 88.0891 415.993 100.586C394.043 113.083 376.851 130.698 364.601 153.491C352.284 176.282 346.159 203.002 346.159 233.472V240.613C346.159 270.725 352.401 297.207 364.834 319.999C377.326 342.792 394.701 360.466 416.826 372.904C439.009 385.401 465.009 391.649 494.693 391.649C521.276 391.649 543.051 387.483 560.059 379.152C577.134 370.821 590.876 360.526 601.342 348.207C611.809 335.948 619.901 324.225 625.434 313.156L574.876 286.972C568.509 300.48 559.468 312.382 547.809 322.617C536.151 332.972 518.784 338.09 495.818 338.09C471.251 338.09 450.734 330.473 434.309 315.179C417.834 299.885 409.267 279.413 408.434 253.646H633.701V230.437C633.701 200.682 627.751 174.736 615.859 152.538C603.959 130.341 587.426 113.023 566.251 100.527H566.368L566.426 100.586ZM409.209 206.692C412.367 184.495 421.226 167.177 435.684 154.681C450.134 142.183 468.876 135.935 491.892 135.935C514.917 135.935 533.534 142.183 547.751 154.681C562.026 167.177 569.934 184.555 571.484 206.692H409.209Z" fill="#FF6446"/>
<path d="M1262.92 332.262C1251.86 332.262 1246.27 326.372 1246.27 314.41V193.723C1246.27 158.077 1235.32 130.465 1213.55 111.064C1191.78 91.6641 1161.86 81.9041 1123.79 81.9041C1099.22 81.9041 1078.23 85.8916 1060.79 93.8066C1043.37 101.722 1029.39 112.136 1018.92 124.99C1008.45 137.903 1000.78 152.245 996.019 168.134L1053.06 186.582C1056.64 170.693 1064.01 157.839 1075.07 147.901C1086.14 138.022 1102.19 133.083 1123.25 133.083C1144.31 133.083 1160.49 138.26 1170.84 148.556C1181.19 158.91 1186.24 172.538 1186.24 189.617V208.661H1097.08C1075.67 208.661 1056.57 212.052 1039.74 218.777C1022.9 225.502 1009.64 235.5 999.885 248.771C990.127 262.041 985.311 278.763 985.311 298.997C985.311 319.23 990.127 335.655 999.885 349.58C1009.64 363.446 1022.67 373.92 1039.14 381.121C1055.62 388.262 1074.3 391.832 1095.35 391.832C1116.41 391.832 1131.82 388.917 1144.14 383.203C1156.39 377.431 1165.73 370.647 1172.09 362.732C1178.45 354.817 1183.15 347.914 1186.37 341.903H1195.29V343.689C1195.29 356.007 1199.64 365.707 1208.38 372.848C1217.06 379.99 1228.36 383.561 1242.22 383.561H1287.97V332.382H1263.04L1262.92 332.262ZM1186.24 262.041C1186.24 286.618 1178.69 305.959 1163.64 320.004C1148.59 334.107 1128.73 341.13 1104.16 341.13C1086.31 341.13 1072.28 337.142 1061.93 329.227C1051.58 321.313 1046.52 310.601 1046.52 297.092C1046.52 283.583 1051.46 273.407 1061.34 266.504C1071.2 259.542 1084.29 256.09 1100.59 256.09H1186.19V262.041H1186.24Z" fill="#FF6446"/>
<path d="M955.686 90.1766H888.594L822.327 211.934H796.869L730.602 90.1766H663.444L745.952 235.262L659.636 383.323H729.352L796.752 258.947H822.211L889.602 383.323H959.319L873.002 235.262L955.511 90.1766H955.686Z" fill="#FF6446"/>
</svg>
